HIERARCHY
ROOT Hips
{
    OFFSET 0.000000 0.000000 0.000000
    CHANNELS 6 Xposition Yposition Zposition Zrotation Xrotation Yrotation
    JOINT Spine
    {
        OFFSET -0.000000 8.250426 0.000000
        CHANNELS 3 Zrotation Xrotation Yrotation
        JOINT Spine1
        {
            OFFSET -0.000000 26.973461 0.000000
            CHANNELS 3 Zrotation Xrotation Yrotation
            JOINT Neck
            {
                OFFSET -0.000000 26.862686 2.442063
                CHANNELS 3 Zrotation Xrotation Yrotation
                JOINT Head
                {
                    OFFSET -0.000000 14.086093 -2.012299
                    CHANNELS 3 Zrotation Xrotation Yrotation
                    End Site
                    {
                        OFFSET -0.000000 25.153738 0.000000
                    }
                }
            }
            JOINT LeftShoulder
            {
                OFFSET 4.034606 23.897446 -0.313550
                CHANNELS 3 Zrotation Xrotation Yrotation
                JOINT LeftArm
                {
                    OFFSET 14.610420 0.000000 0.000000
                    CHANNELS 3 Zrotation Xrotation Yrotation
                    JOINT LeftForeArm
                    {
                        OFFSET 28.890345 0.000000 0.000000
                        CHANNELS 3 Zrotation Xrotation Yrotation
                        JOINT LeftHand
                        {
                            OFFSET 28.816763 0.000000 0.000000
                            CHANNELS 3 Zrotation Xrotation Yrotation
                            End Site
                            {
                                OFFSET 15.092243 0.000000 0.000000
                            }
                        }
                    }
                }
            }
            JOINT RightShoulder
            {
                OFFSET -4.014012 23.897446 -0.313550
                CHANNELS 3 Zrotation Xrotation Yrotation
                JOINT RightArm
                {
                    OFFSET -14.610420 0.000000 0.000000
                    CHANNELS 3 Zrotation Xrotation Yrotation
                    JOINT RightForeArm
                    {
                        OFFSET -28.890345 0.000000 0.000000
                        CHANNELS 3 Zrotation Xrotation Yrotation
                        JOINT RightHand
                        {
                            OFFSET -28.816763 0.000000 0.000000
                            CHANNELS 3 Zrotation Xrotation Yrotation
                            End Site
                            {
                                OFFSET -15.092243 0.000000 0.000000
                            }
                        }
                    }
                }
            }
        }
    }
    JOINT LeftUpLeg
    {
        OFFSET 10.061496 0.000000 0.000000
        CHANNELS 3 Zrotation Xrotation Yrotation
        JOINT LeftLeg
        {
            OFFSET -0.000000 -36.089622 0.000000
            CHANNELS 3 Zrotation Xrotation Yrotation
            JOINT LeftFoot
            {
                OFFSET -0.000000 -47.113575 0.000000
                CHANNELS 3 Zrotation Xrotation Yrotation
                JOINT LeftToeBase
                {
                    OFFSET -0.000000 -6.539971 15.092243
                    CHANNELS 3 Zrotation Xrotation Yrotation
                    End Site
                    {
                        OFFSET -0.000000 0.000000 4.024598
                    }
                }
            }
        }
    }
    JOINT RightUpLeg
    {
        OFFSET -10.061496 0.000000 0.000000
        CHANNELS 3 Zrotation Xrotation Yrotation
        JOINT RightLeg
        {
            OFFSET -0.000000 -36.089622 0.000000
            CHANNELS 3 Zrotation Xrotation Yrotation
            JOINT RightFoot
            {
                OFFSET -0.000000 -47.113575 0.000000
                CHANNELS 3 Zrotation Xrotation Yrotation
                JOINT RightToeBase
                {
                    OFFSET -0.000000 -6.539971 15.092243
                    CHANNELS 3 Zrotation Xrotation Yrotation
                    End Site
                    {
                        OFFSET -0.000000 0.000000 4.024598
                    }
                }
            }
        }
    }
}
MOTION
Frames:    14
Frame Time:    0.004000
-19.985373    84.111458    -208.209656    -1.127851    -1.047431    2.269235    -0.477277    -8.124722    1.246190    1.612223    1.472971    1.259366    6.538461    21.292402    10.967050    -7.103473    4.922901    11.036157    15.853146    3.299023    0.901695    -20.401129    2.433468    -6.715581    1.458991    0.638927    0.595255    16.578169    0.779680    1.017785    -13.343282    0.515757    2.388322    15.646852    2.401421    7.050409    -6.541363    1.838385    2.373011    -5.686831    2.257556    -5.709182    5.801725    -0.657987    -5.454268    -4.961471    11.356226    -11.809340    6.445086    -12.099469    25.190540    0.000000    0.000000    0.000000    -1.891093    1.233584    3.074484    4.364207    11.006579    4.863961    -5.603434    -13.438720    -12.466594    0.000000    0.000000    0.000000    
-19.982243    84.111679    -208.209442    -1.123303    -1.045105    2.267472    -0.472697    -8.128682    1.244624    1.602340    1.474227    1.257571    6.542447    21.301142    10.966249    -7.123588    4.928129    11.034428    15.852535    3.291791    0.904226    -20.404026    2.404309    -6.713533    1.453934    0.660397    0.607979    16.550608    0.799140    1.007151    -13.344984    0.512889    2.389476    15.654025    2.422358    7.047339    -6.552717    1.829692    2.370038    -5.688490    2.249223    -5.713384    5.793753    -0.656456    -5.448775    -4.953530    11.352983    -11.841790    6.442049    -12.102562    25.205784    0.000000    0.000000    0.000000    -1.899281    1.227884    3.070201    4.369254    11.013956    4.865075    -5.590122    -13.446962    -12.477867    0.000000    0.000000    0.000000    
-19.980541    84.111130    -208.208176    -1.125466    -1.046796    2.271584    -0.454425    -8.115748    1.241989    1.570214    1.449436    1.254392    6.573236    21.324741    10.964200    -7.154828    4.922732    11.031890    15.864832    3.304739    0.909426    -20.405159    2.408950    -6.719513    1.454538    0.663950    0.611007    16.559412    0.805070    1.023065    -13.327871    0.528911    2.385112    15.655825    2.419879    7.053380    -6.555451    1.817642    2.367037    -5.706251    2.238588    -5.726058    5.793089    -0.655174    -5.456950    -4.953652    11.354823    -11.822275    6.454263    -12.102262    25.194715    0.000000    0.000000    0.000000    -1.894076    1.236305    3.080043    4.363802    11.003197    4.857098    -5.586791    -13.447215    -12.471753    0.000000    0.000000    0.000000    
-19.977049    84.110573    -208.205276    -1.125737    -1.050901    2.266964    -0.450417    -8.112596    1.241324    1.573713    1.445345    1.253481    6.556953    21.309004    10.962678    -7.138078    4.978683    11.033622    15.858072    3.298369    0.909417    -20.412405    2.392798    -6.712606    1.449355    0.674516    0.618162    16.572954    0.815710    1.023158    -13.335881    0.530531    2.383232    15.654755    2.392194    7.057683    -6.541990    1.825312    2.364867    -5.698814    2.245626    -5.729560    5.788175    -0.641737    -5.446825    -4.942948    11.344918    -11.829218    6.456540    -12.099175    25.188929    0.000000    0.000000    0.000000    -1.893474    1.239643    3.067280    4.354140    11.009649    4.860543    -5.586894    -13.446779    -12.456047    0.000000    0.000000    0.000000    
-19.946203    84.094254    -208.190109    -1.073248    -1.166139    2.227213    -0.437145    -7.982707    1.263274    1.509406    1.426867    1.275002    6.565701    21.326998    10.963387    -7.144824    4.977653    11.035194    15.873194    3.294508    0.909391    -20.425848    2.382505    -6.707094    1.441360    0.687988    0.624307    16.624958    0.832361    1.041178    -13.323881    0.528916    2.382132    15.656687    2.411448    7.055323    -6.550626    1.806392    2.363173    -5.734746    2.228481    -5.726947    5.699217    -0.472336    -5.514370    -4.917024    11.280225    -11.748240    6.483438    -12.120459    25.198709    0.000000    0.000000    0.000000    -1.992040    1.362754    3.073414    4.396879    11.014318    4.936746    -5.621524    -13.524988    -12.500279    0.000000    0.000000    0.000000    
-19.973642    84.112717    -208.204056    -1.124333    -1.041805    2.266062    -0.436987    -8.118613    1.236167    1.550382    1.431586    1.247789    6.555208    21.328342    10.965206    -7.136428    4.995097    11.038584    15.866389    3.293843    0.915193    -20.425262    2.356682    -6.711717    1.439903    0.706913    0.640272    16.619606    0.846899    1.012963    -13.325481    0.516916    2.382318    15.665726    2.411730    7.050639    -6.555426    1.792370    2.372699    -5.771502    2.218363    -5.755344    5.782775    -0.646583    -5.467305    -4.944099    11.334620    -11.798956    6.437683    -12.097571    25.174728    0.000000    0.000000    0.000000    -1.899055    1.234962    3.094339    4.365839    11.000611    4.837929    -5.595372    -13.445447    -12.472779    0.000000    0.000000    0.000000    
-19.974108    84.111725    -208.204010    -1.128483    -1.051626    2.266868    -0.431961    -8.104284    1.232208    1.547382    1.421446    1.243598    6.548892    21.334650    10.964811    -7.128611    5.009020    11.039877    15.870524    3.287274    0.916096    -20.438805    2.357066    -6.702028    1.446323    0.724950    0.637382    16.636261    0.867621    1.030831    -13.325326    0.508128    2.386497    15.676525    2.413254    7.046319    -6.609368    1.740561    2.402983    -5.304759    2.140946    -5.648494    5.789066    -0.638397    -5.457684    -4.947284    11.338700    -11.811535    6.455590    -12.097908    25.182421    0.000000    0.000000    0.000000    -1.887374    1.239761    3.076304    4.350921    11.007567    4.845064    -5.571472    -13.451393    -12.461343    0.000000    0.000000    0.000000    
-19.970272    84.112076    -208.203369    -1.127466    -1.043372    2.260154    -0.423342    -8.114134    1.230338    1.541138    1.418487    1.241254    6.541228    21.340672    10.969380    -7.138775    5.023997    11.044600    15.862053    3.279386    0.920004    -20.436386    2.352078    -6.689154    1.441826    0.738773    0.637000    16.647921    0.881109    1.027848    -13.332252    0.503883    2.385531    15.682004    2.394778    7.055509    -6.606839    1.740492    2.402791    -5.300183    2.140662    -5.649854    5.782871    -0.643086    -5.462902    -4.942370    11.335683    -11.825653    6.453648    -12.094609    25.207468    0.000000    0.000000    0.000000    -1.893716    1.229498    3.068655    4.349620    11.016421    4.876779    -5.580701    -13.449203    -12.470126    0.000000    0.000000    0.000000    
-19.968636    84.113136    -208.201843    -1.130397    -1.043123    2.262398    -0.416177    -8.112960    1.225755    1.533578    1.410197    1.236449    6.543962    21.330410    10.963780    -7.139626    5.072134    11.041152    15.865109    3.277695    0.921667    -20.445820    2.335283    -6.684445    1.441072    0.763427    0.644908    16.662567    0.902612    1.005458    -13.320903    0.507573    2.385629    15.678893    2.416088    7.051945    -6.628595    1.710610    2.408422    -5.281046    2.111259    -5.662539    5.783297    -0.639633    -5.461668    -4.941879    11.332325    -11.791460    6.467926    -12.083538    25.168547    0.000000    0.000000    0.000000    -1.889962    1.235868    3.081026    4.351531    11.002832    4.840979    -5.580929    -13.434114    -12.451286    0.000000    0.000000    0.000000    
-19.966223    84.112015    -208.201935    -1.131456    -1.046255    2.259130    -0.405482    -8.107379    1.225284    1.522044    1.404762    1.235418    6.542861    21.348080    10.965167    -7.145986    5.062575    11.042416    15.863564    3.275512    0.927088    -20.446878    2.325452    -6.686171    1.436022    0.773169    0.648905    16.678820    0.912759    1.007109    -13.324518    0.495512    2.383934    15.692688    2.395786    7.052604    -6.636028    1.711234    2.413157    -5.295421    2.113346    -5.670011    5.782586    -0.633982    -5.469599    -4.940643    11.329808    -11.818100    6.468280    -12.096493    25.200556    0.000000    0.000000    0.000000    -1.889374    1.236897    3.068633    4.346791    11.008787    4.875568    -5.569460    -13.440142    -12.472718    0.000000    0.000000    0.000000    
-19.965536    84.112701    -208.201263    -1.135889    -1.052401    2.260857    -0.396009    -8.101185    1.219482    1.513309    1.401026    1.229028    6.538451    21.353523    10.966240    -7.144381    5.077131    11.044761    15.863700    3.285412    0.933465    -20.448654    2.314595    -6.686592    1.435398    0.778674    0.656175    16.688869    0.915248    0.986708    -13.318419    0.497121    2.389957    15.694719    2.395347    7.048902    -6.647230    1.693358    2.418065    -5.306118    2.097787    -5.696121    5.787765    -0.626985    -5.461399    -4.941216    11.327891    -11.823647    6.475769    -12.095181    25.194702    0.000000    0.000000    0.000000    -1.881639    1.241600    3.075955    4.342866    11.011343    4.867225    -5.552529    -13.444301    -12.479799    0.000000    0.000000    0.000000    
-19.962433    84.111855    -208.201981    -1.136885    -1.041575    2.261271    -0.395866    -8.112385    1.215210    1.520959    1.396359    1.224756    6.528467    21.374338    10.965015    -7.153832    5.063950    11.042576    15.854500    3.281864    0.936929    -20.457775    2.304622    -6.682994    1.442685    0.786304    0.656728    16.701403    0.921031    0.973876    -13.329836    0.492915    2.397005    15.701933    2.370685    7.041707    -6.649607    1.717092    2.421295    -5.294827    2.129313    -5.872468    5.784440    -0.640015    -5.486196    -4.947474    11.325841    -11.780870    6.474833    -12.096813    25.189276    0.000000    0.000000    0.000000    -1.886417    1.231551    3.069146    4.350833    11.010160    4.855941    -5.595527    -13.438911    -12.471751    0.000000    0.000000    0.000000    
-19.960329    84.112450    -208.202484    -1.137301    -1.039046    2.257691    -0.382747    -8.114873    1.214872    1.497888    1.394081    1.223826    6.535908    21.362091    10.969805    -7.146831    5.101983    11.050214    15.871379    3.287505    0.932863    -20.470549    2.305150    -6.670817    1.439884    0.788918    0.651171    16.711592    0.924011    0.975245    -13.317935    0.483626    2.392913    15.703530    2.350456    7.044586    -6.647187    1.717989    2.431359    -5.329635    2.132820    -5.878341    5.780137    -0.641616    -5.466949    -4.936329    11.332790    -11.810274    6.502538    -12.081284    25.201935    0.000000    0.000000    0.000000    -1.885391    1.227180    3.071690    4.345576    11.012566    4.868260    -5.576202    -13.435137    -12.469331    0.000000    0.000000    0.000000    
-19.958971    84.111824    -208.202225    -1.139206    -1.053336    2.257587    -0.379970    -8.097464    1.210113    1.504357    1.390788    1.218714    6.506914    21.370316    10.972515    -7.132618    5.094896    11.053054    15.851750    3.279037    0.948681    -20.459242    2.306245    -6.675927    1.433790    0.795971    0.654060    16.718870    0.929182    0.961841    -13.332503    0.477895    2.397219    15.715445    2.366118    7.040492    -6.666104    1.697982    2.431095    -5.300620    2.110940    -5.861979    5.783914    -0.630262    -5.496428    -4.944829    11.330202    -11.811763    6.493714    -12.090213    25.224695    0.000000    0.000000    0.000000    -1.881878    1.243798    3.059167    4.339202    11.010575    4.883710    -5.574540    -13.442522    -12.476009    0.000000    0.000000    0.000000    
